<svg width="266" height="25" viewBox="0 0 266 25" fill="none" xmlns="http://www.w3.org/2000/svg">
<path d="M10.5124 22.3137C6.64066 22.3137 4.48424 20.2062 3.38152 18.4174C2.40132 16.8736 1.88672 14.9622 1.88672 12.9283V0.724854H2.86691V12.9283C2.86691 14.7907 3.33251 16.506 4.19018 17.8783C5.61146 20.1572 7.74338 21.309 10.4879 21.309C13.2325 21.309 15.3644 20.1572 16.8102 17.8783C17.6924 16.4815 18.158 14.7661 18.158 12.9038V0.724854H19.1381V12.9038C19.1381 14.9622 18.6235 16.8491 17.6434 18.4174C16.5161 20.2062 14.3842 22.3137 10.4879 22.3137H10.5124Z" fill="white"/>
<path d="M10.5126 24.1515C6.98389 24.1515 4.21484 22.9263 2.22994 20.5003C0.808661 18.7359 0 16.3835 0 13.9085V0.724854H1.0047V13.9085C1.0047 16.1629 1.71534 18.2703 3.0141 19.8632C4.77845 22.0441 7.30245 23.1468 10.5126 23.1468C13.7227 23.1468 16.2467 22.0441 18.0356 19.8387C19.3343 18.2458 20.045 16.1139 20.045 13.8595V0.724854H21.0252V13.8595C21.0252 16.3345 20.241 18.6869 18.7952 20.4513C16.8103 22.8773 14.0168 24.127 10.4881 24.127L10.5126 24.1515Z" fill="white"/>
<path d="M57.1208 0.724854H56.1406V23.6369H57.1208V0.724854Z" fill="white"/>
<path d="M58.9597 0.724854H57.9795V23.6369H58.9597V0.724854Z" fill="white"/>
<path d="M48.9607 23.6614V0.724854H47.956V22.4607L28.9893 3.4694V23.6614H29.9695V5.87088L47.76 23.6614H48.9607Z" fill="white"/>
<path d="M46.1662 0.749358V18.2458L28.3511 0.724854H27.1504V23.6614H28.1306V1.92559L47.1464 20.6228V0.749358H46.1662Z" fill="white"/>
<path d="M78.5383 15.0355L86.968 23.5632L87.6786 22.8281L78.5383 13.6877V15.0355Z" fill="white"/>
<path d="M89.4434 12.1931C89.4434 5.65032 84.1258 0.332764 77.583 0.332764C71.0402 0.332764 65.7227 5.65032 65.7227 12.1931C65.7227 18.7359 71.0402 24.0535 77.583 24.0535C80.1315 24.0535 82.5085 23.2203 84.4444 21.848L83.7337 21.1374C81.9694 22.3381 79.862 23.0733 77.583 23.0733C71.5793 23.0733 66.7029 18.1968 66.7029 12.1931C66.7029 6.18943 71.6038 1.31296 77.583 1.31296C83.5622 1.31296 88.4632 6.18943 88.4632 12.1931C88.4632 14.6926 87.6055 16.9961 86.1842 18.8339C85.9882 19.1035 85.7676 19.3485 85.5226 19.5936L86.2332 20.3042L88.1446 22.2156L88.8553 21.505L86.8704 19.5446C88.4632 17.5352 89.4434 14.9867 89.4434 12.1931Z" fill="white"/>
<path d="M80.3505 13.0753H79.0027L84.1242 18.1968L84.8349 18.9074C85.0554 18.6624 85.276 18.4173 85.472 18.1478C86.7217 16.4814 87.4814 14.423 87.4814 12.1931C87.4814 6.75301 83.046 2.31763 77.6059 2.31763C72.1659 2.31763 67.7305 6.75301 67.7305 12.1931C67.7305 17.6332 72.1659 22.0686 77.6059 22.0686C79.6888 22.0686 81.6002 21.4314 83.193 20.3287L82.4824 19.6181C81.0856 20.5493 79.3948 21.0884 77.6059 21.0884C72.705 21.0884 68.7107 17.0941 68.7107 12.1931C68.7107 7.29212 72.705 3.29782 77.6059 3.29782C82.5069 3.29782 86.5012 7.29212 86.5012 12.1931C86.5012 14.1535 85.8641 15.9668 84.7614 17.4371L80.3505 13.0753Z" fill="white"/>
<path d="M108.189 23.2457H109.733C111.816 23.2457 113.458 22.6821 114.658 21.5549C115.859 20.4277 117.06 18.4673 118.261 15.6492C118.432 15.2816 118.579 15.1101 118.775 15.1101C118.824 15.1101 118.873 15.1101 118.922 15.1101C118.971 15.1101 118.996 15.1101 119.02 15.1101L117.158 24.2259C116.104 23.9074 114.021 23.7358 110.909 23.7358H97.2354V23.5398C97.2354 23.3682 97.4069 23.2702 97.7745 23.1722C98.142 23.0987 98.5586 23.0007 98.9997 22.9272C99.4653 22.8291 99.8574 22.5351 100.225 22.045C100.593 21.5549 100.764 20.8687 100.764 19.9621V3.96038C100.764 3.22524 100.593 2.66162 100.225 2.26955C99.8574 1.87747 99.4653 1.63242 99.0242 1.55891C98.5831 1.48539 98.191 1.38737 97.8235 1.31386C97.4559 1.21584 97.2844 1.09331 97.2844 0.946283V0.750244H108.777V0.946283C108.777 1.11782 108.581 1.24034 108.214 1.31386C107.846 1.41188 107.429 1.48539 106.988 1.55891C106.547 1.63242 106.131 1.87747 105.763 2.29405C105.395 2.71063 105.199 3.27425 105.199 3.98489C105.199 5.50419 105.199 8.24874 105.199 12.2185C105.199 16.1883 105.199 18.9084 105.199 20.4522C105.199 21.3588 105.444 22.0695 105.91 22.5351C106.376 23.0252 107.16 23.2457 108.214 23.2457H108.189Z" fill="white"/>
<path d="M145.828 14.0799C145.828 20.7942 142.814 24.1514 136.786 24.1514C130.145 24.1514 126.813 21.2843 126.813 15.5747V3.95934C126.813 3.2242 126.641 2.66058 126.273 2.26851C125.93 1.87643 125.514 1.63138 125.097 1.55787C124.681 1.48435 124.264 1.38633 123.921 1.31282C123.578 1.2148 123.382 1.09227 123.382 0.945244V0.749205H134.801V0.945244C134.801 1.11678 134.654 1.2148 134.385 1.31282C134.09 1.38633 133.772 1.45985 133.404 1.50886C133.037 1.55787 132.669 1.7294 132.326 1.99895C131.983 2.26851 131.738 2.66059 131.615 3.12618C131.346 3.83682 131.199 4.64548 131.199 5.60117V15.8197C131.199 18.3192 131.689 20.2061 132.645 21.5048C133.6 22.8036 135.365 23.4407 137.913 23.4407C140.143 23.4407 141.932 22.6811 143.255 21.1373C144.579 19.618 145.216 17.4125 145.216 14.5454V5.06206C145.216 4.08187 144.995 3.29771 144.579 2.7341C144.162 2.17049 143.696 1.80291 143.182 1.68039C142.667 1.55787 142.226 1.43534 141.785 1.31282C141.368 1.19029 141.148 1.06777 141.148 0.896234V0.700195H149.798V0.896234C149.798 1.06777 149.602 1.19029 149.185 1.31282C148.769 1.43534 148.328 1.55787 147.813 1.68039C147.299 1.80291 146.858 2.14598 146.441 2.7341C146.024 3.29771 145.828 4.08187 145.828 5.06206V14.0799Z" fill="white"/>
<path d="M169.941 20.1079L165.726 13.5896L162.639 18.0005C161.365 19.8629 160.727 21.0636 160.727 21.6272C160.727 22.0193 160.875 22.3133 161.169 22.5584C161.463 22.7789 161.781 22.926 162.124 22.975C162.467 23.024 162.786 23.0975 163.08 23.1955C163.374 23.2935 163.521 23.4161 163.521 23.5631V23.7346H154.944V23.5631C154.944 23.3916 155.042 23.2935 155.238 23.22C155.434 23.1465 155.728 23.073 156.121 22.975C156.513 22.877 156.954 22.7054 157.444 22.4849C157.934 22.2643 158.498 21.8723 159.159 21.3086C159.821 20.745 160.458 20.0099 161.071 19.1032L165.383 13.026L160.066 4.76785C159.625 4.08171 159.184 3.4936 158.694 3.0035C158.203 2.5134 157.787 2.17033 157.444 1.94979C157.101 1.72925 156.758 1.55771 156.464 1.43519C156.17 1.31266 155.949 1.21464 155.802 1.11662C155.655 1.01861 155.581 0.945091 155.581 0.871576V0.675537H166.633V0.871576C166.633 1.04311 166.486 1.16563 166.217 1.23915C165.947 1.33717 165.628 1.41068 165.31 1.4842C164.967 1.55771 164.673 1.68024 164.403 1.90078C164.134 2.09682 163.987 2.39088 163.987 2.75845C163.987 3.07701 164.207 3.61612 164.648 4.37577C165.089 5.13542 165.751 6.16463 166.633 7.48789C167.515 8.78665 168.079 9.64432 168.324 10.0609L171.314 5.65003C172.196 4.32676 172.661 3.39558 172.661 2.83197C172.661 2.43989 172.539 2.14583 172.294 1.92529C172.049 1.70474 171.755 1.58222 171.461 1.53321C171.167 1.4842 170.873 1.41068 170.627 1.31266C170.382 1.21464 170.26 1.06762 170.26 0.896081V0.700042H178.616V0.896081C178.616 1.06762 178.445 1.23915 178.077 1.33717C177.734 1.45969 177.268 1.58222 176.729 1.72925C176.19 1.87628 175.479 2.29286 174.597 2.979C173.715 3.66513 172.882 4.59632 172.049 5.74805L168.667 10.551L175.308 20.696C175.773 21.3331 176.264 21.8477 176.803 22.2398C177.342 22.6319 177.783 22.8524 178.15 22.9505C178.494 23.024 178.812 23.122 179.057 23.1955C179.302 23.2935 179.425 23.3916 179.425 23.5386V23.7346H167.858V23.5631C167.858 23.4161 168.005 23.318 168.275 23.1955C168.545 23.0975 168.863 22.9995 169.206 22.9505C169.549 22.877 169.868 22.7299 170.137 22.5339C170.407 22.3133 170.554 22.0438 170.554 21.7007C170.554 21.2351 170.358 20.696 169.941 20.0834V20.1079Z" fill="white"/>
<path d="M207.116 14.0799C207.116 20.7942 204.102 24.1514 198.074 24.1514C191.433 24.1514 188.101 21.2843 188.101 15.5747V3.95934C188.101 3.2242 187.929 2.66058 187.561 2.26851C187.218 1.87643 186.802 1.63138 186.385 1.55787C185.969 1.48435 185.552 1.38633 185.209 1.31282C184.866 1.2148 184.67 1.09227 184.67 0.945244V0.749205H196.089V0.945244C196.089 1.11678 195.942 1.2148 195.673 1.31282C195.379 1.38633 195.06 1.45985 194.692 1.50886C194.325 1.55787 193.957 1.7294 193.614 1.99895C193.271 2.26851 193.026 2.66059 192.904 3.12618C192.634 3.83682 192.487 4.64548 192.487 5.60117V15.8197C192.487 18.3192 192.977 20.2061 193.933 21.5048C194.888 22.8036 196.653 23.4407 199.201 23.4407C201.431 23.4407 203.22 22.6811 204.543 21.1373C205.867 19.618 206.504 17.4125 206.504 14.5454V5.06206C206.504 4.08187 206.283 3.29771 205.867 2.7341C205.45 2.17049 204.984 1.80291 204.47 1.68039C203.955 1.55787 203.514 1.43534 203.073 1.31282C202.657 1.19029 202.436 1.06777 202.436 0.896234V0.700195H211.086V0.896234C211.086 1.06777 210.89 1.19029 210.474 1.31282C210.057 1.43534 209.616 1.55787 209.101 1.68039C208.587 1.80291 208.146 2.14598 207.729 2.7341C207.312 3.29771 207.116 4.08187 207.116 5.06206V14.0799Z" fill="white"/>
<path d="M225.372 12.8055H224.588V20.1324C224.588 20.9901 224.784 21.6517 225.152 22.1173C225.519 22.5829 225.936 22.877 226.377 22.9505C226.818 23.024 227.234 23.122 227.602 23.1955C227.97 23.2935 228.166 23.4161 228.166 23.5631V23.7346H216.673V23.5631C216.673 23.3916 216.844 23.2445 217.212 23.1465C217.58 23.0485 217.972 22.975 218.437 22.877C218.878 22.7789 219.295 22.4604 219.662 21.9213C220.03 21.3822 220.202 20.647 220.202 19.6668V3.95919C220.202 3.22404 220.03 2.66043 219.662 2.24385C219.295 1.82727 218.903 1.58222 218.462 1.53321C218.021 1.4842 217.629 1.38618 217.261 1.31266C216.893 1.23915 216.722 1.09212 216.722 0.920586V0.675537H226.695C229.783 0.675537 232.184 1.16563 233.924 2.14583C235.64 3.12602 236.522 4.64533 236.522 6.70374C236.522 8.49259 235.689 9.96288 234.047 11.1391C232.38 12.3154 230.053 12.879 227.038 12.879C226.94 12.879 226.769 12.879 226.524 12.879C226.279 12.879 226.107 12.879 226.034 12.879C226.989 14.0307 228.803 14.5698 231.449 14.5208L235.885 20.794C236.522 21.6762 237.208 22.3133 237.943 22.6564C238.678 22.9995 239.242 23.22 239.634 23.269C240.026 23.318 240.222 23.4651 240.222 23.6611V23.8081H233.189L225.397 12.83L225.372 12.8055ZM224.588 1.23915V12.2663H225.985C227.823 12.2663 229.244 11.7517 230.298 10.747C231.327 9.71784 231.866 8.41908 231.866 6.77725C231.866 5.13542 231.327 3.73865 230.249 2.75845C229.17 1.75375 227.774 1.26365 226.058 1.26365H224.612L224.588 1.23915Z" fill="white"/>
<path d="M256.272 12.634H256.37L259.801 5.91964C260.462 4.66989 260.805 3.73871 260.805 3.15059C260.805 2.56247 260.56 2.12139 260.07 1.87634C259.58 1.60678 259.09 1.43525 258.6 1.33723C258.11 1.23921 257.865 1.11669 257.865 0.969658V0.724609H266V0.969658C266 1.14119 265.829 1.26372 265.51 1.36174C265.192 1.45976 264.8 1.55778 264.334 1.6803C263.868 1.77832 263.305 2.12139 262.692 2.685C262.079 3.24861 261.491 4.00826 261.001 4.96395C259.752 7.31642 258.281 10.11 256.615 13.3691V20.1815C256.615 21.0392 256.811 21.7008 257.179 22.1664C257.546 22.632 257.963 22.926 258.404 22.9995C258.845 23.0731 259.261 23.1711 259.629 23.2446C259.997 23.3426 260.193 23.4651 260.193 23.6122V23.7837H248.749V23.6122C248.749 23.4406 248.92 23.3181 249.288 23.2446C249.656 23.1466 250.048 23.0731 250.464 22.975C250.881 22.877 251.273 22.6075 251.64 22.1174C252.008 21.6273 252.18 20.9656 252.18 20.1325V14.0063L246.445 3.81222C246.078 3.1751 245.686 2.66049 245.22 2.29292C244.779 1.92535 244.387 1.6803 244.068 1.58228C243.75 1.48426 243.48 1.41075 243.26 1.31273C243.039 1.21471 242.941 1.09218 242.941 0.945153V0.749114H253.601V0.994163C253.601 1.14119 253.454 1.23921 253.16 1.33723C252.866 1.43525 252.572 1.50877 252.229 1.55778C251.885 1.60678 251.591 1.75381 251.297 1.97436C251.003 2.1949 250.856 2.46446 250.856 2.80752C250.856 3.10158 250.954 3.39564 251.126 3.6897L256.198 12.683L256.272 12.634Z" fill="white"/>
</svg>
